<mxfile host="Electron" agent="Mozilla/5.0 (Windows NT 10.0; Win64; x64) AppleWebKit/537.36 (KHTML, like Gecko) draw.io/24.7.17 Chrome/128.0.6613.36 Electron/32.0.1 Safari/537.36" version="24.7.17" pages="3">
  <diagram name="Страница — 1" id="W7-dfjUl7TaThwL8vIDV">
    <mxGraphModel dx="1313" dy="786" grid="1" gridSize="10" guides="1" tooltips="1" connect="1" arrows="1" fold="1" page="1" pageScale="1" pageWidth="827" pageHeight="1169" math="0" shadow="0">
      <root>
        <mxCell id="0" />
        <mxCell id="1" parent="0" />
        <mxCell id="j27YRT875FW1kfULd9Tp-1" style="edgeStyle=orthogonalEdgeStyle;rounded=0;orthogonalLoop=1;jettySize=auto;html=1;" edge="1" parent="1" source="j27YRT875FW1kfULd9Tp-2" target="j27YRT875FW1kfULd9Tp-7">
          <mxGeometry relative="1" as="geometry" />
        </mxCell>
        <mxCell id="j27YRT875FW1kfULd9Tp-2" value="Начало" style="ellipse;whiteSpace=wrap;html=1;" vertex="1" parent="1">
          <mxGeometry x="260" y="150" width="120" height="60" as="geometry" />
        </mxCell>
        <mxCell id="j27YRT875FW1kfULd9Tp-3" style="edgeStyle=orthogonalEdgeStyle;rounded=0;orthogonalLoop=1;jettySize=auto;html=1;entryX=0.5;entryY=0;entryDx=0;entryDy=0;" edge="1" parent="1" source="j27YRT875FW1kfULd9Tp-7" target="j27YRT875FW1kfULd9Tp-9">
          <mxGeometry relative="1" as="geometry" />
        </mxCell>
        <mxCell id="j27YRT875FW1kfULd9Tp-4" style="edgeStyle=orthogonalEdgeStyle;rounded=0;orthogonalLoop=1;jettySize=auto;html=1;entryX=0.5;entryY=0;entryDx=0;entryDy=0;" edge="1" parent="1" source="j27YRT875FW1kfULd9Tp-7" target="j27YRT875FW1kfULd9Tp-11">
          <mxGeometry relative="1" as="geometry" />
        </mxCell>
        <mxCell id="j27YRT875FW1kfULd9Tp-5" style="edgeStyle=orthogonalEdgeStyle;rounded=0;orthogonalLoop=1;jettySize=auto;html=1;entryX=0.5;entryY=0;entryDx=0;entryDy=0;" edge="1" parent="1" source="j27YRT875FW1kfULd9Tp-7" target="j27YRT875FW1kfULd9Tp-14">
          <mxGeometry relative="1" as="geometry" />
        </mxCell>
        <mxCell id="j27YRT875FW1kfULd9Tp-6" style="edgeStyle=orthogonalEdgeStyle;rounded=0;orthogonalLoop=1;jettySize=auto;html=1;entryX=0.5;entryY=0;entryDx=0;entryDy=0;" edge="1" parent="1" source="j27YRT875FW1kfULd9Tp-7" target="j27YRT875FW1kfULd9Tp-15">
          <mxGeometry relative="1" as="geometry" />
        </mxCell>
        <mxCell id="j27YRT875FW1kfULd9Tp-7" value="Основной экран" style="rounded=1;whiteSpace=wrap;html=1;" vertex="1" parent="1">
          <mxGeometry x="260" y="240" width="120" height="60" as="geometry" />
        </mxCell>
        <mxCell id="j27YRT875FW1kfULd9Tp-8" style="edgeStyle=orthogonalEdgeStyle;rounded=0;orthogonalLoop=1;jettySize=auto;html=1;entryX=0.5;entryY=0;entryDx=0;entryDy=0;" edge="1" parent="1" source="j27YRT875FW1kfULd9Tp-9" target="j27YRT875FW1kfULd9Tp-12">
          <mxGeometry relative="1" as="geometry" />
        </mxCell>
        <mxCell id="j27YRT875FW1kfULd9Tp-9" value="Список задач" style="rounded=1;whiteSpace=wrap;html=1;" vertex="1" parent="1">
          <mxGeometry x="85" y="360" width="120" height="60" as="geometry" />
        </mxCell>
        <mxCell id="o6QJblB1Smc_fNj8Gcau-8" style="edgeStyle=orthogonalEdgeStyle;rounded=0;orthogonalLoop=1;jettySize=auto;html=1;entryX=0.5;entryY=0;entryDx=0;entryDy=0;" edge="1" parent="1" source="j27YRT875FW1kfULd9Tp-11" target="o6QJblB1Smc_fNj8Gcau-1">
          <mxGeometry relative="1" as="geometry" />
        </mxCell>
        <mxCell id="o6QJblB1Smc_fNj8Gcau-12" style="edgeStyle=orthogonalEdgeStyle;rounded=0;orthogonalLoop=1;jettySize=auto;html=1;entryX=0.5;entryY=0;entryDx=0;entryDy=0;" edge="1" parent="1" source="j27YRT875FW1kfULd9Tp-11" target="o6QJblB1Smc_fNj8Gcau-2">
          <mxGeometry relative="1" as="geometry">
            <Array as="points">
              <mxPoint x="430" y="420" />
              <mxPoint x="560" y="420" />
            </Array>
          </mxGeometry>
        </mxCell>
        <mxCell id="o6QJblB1Smc_fNj8Gcau-19" style="edgeStyle=orthogonalEdgeStyle;rounded=0;orthogonalLoop=1;jettySize=auto;html=1;entryX=0.5;entryY=0;entryDx=0;entryDy=0;" edge="1" parent="1" source="j27YRT875FW1kfULd9Tp-11" target="o6QJblB1Smc_fNj8Gcau-16">
          <mxGeometry relative="1" as="geometry">
            <Array as="points">
              <mxPoint x="430" y="420" />
              <mxPoint x="690" y="420" />
            </Array>
          </mxGeometry>
        </mxCell>
        <mxCell id="j27YRT875FW1kfULd9Tp-11" value="Кнопки для управления задачами" style="rounded=1;whiteSpace=wrap;html=1;" vertex="1" parent="1">
          <mxGeometry x="370" y="350" width="120" height="60" as="geometry" />
        </mxCell>
        <mxCell id="j27YRT875FW1kfULd9Tp-12" value="- Название&lt;div&gt;- Статус&lt;/div&gt;&lt;div&gt;- Отметка выполнения&lt;/div&gt;&lt;div&gt;- Категория&lt;/div&gt;&lt;div&gt;- Дата и время&lt;/div&gt;" style="rounded=1;whiteSpace=wrap;html=1;" vertex="1" parent="1">
          <mxGeometry x="70" y="450" width="150" height="100" as="geometry" />
        </mxCell>
        <mxCell id="j27YRT875FW1kfULd9Tp-14" value="Хранение данных:&lt;div&gt;json&lt;/div&gt;&lt;div&gt;Авто-сохранение&lt;/div&gt;" style="rounded=1;whiteSpace=wrap;html=1;" vertex="1" parent="1">
          <mxGeometry x="220" y="585" width="120" height="60" as="geometry" />
        </mxCell>
        <mxCell id="j27YRT875FW1kfULd9Tp-15" value="Экспорт задач в txt" style="rounded=1;whiteSpace=wrap;html=1;" vertex="1" parent="1">
          <mxGeometry x="530" y="350" width="120" height="60" as="geometry" />
        </mxCell>
        <mxCell id="o6QJblB1Smc_fNj8Gcau-9" style="edgeStyle=orthogonalEdgeStyle;rounded=0;orthogonalLoop=1;jettySize=auto;html=1;entryX=0.5;entryY=0;entryDx=0;entryDy=0;" edge="1" parent="1" source="o6QJblB1Smc_fNj8Gcau-1" target="o6QJblB1Smc_fNj8Gcau-5">
          <mxGeometry relative="1" as="geometry" />
        </mxCell>
        <mxCell id="o6QJblB1Smc_fNj8Gcau-1" value="Добавление задачи" style="rounded=1;whiteSpace=wrap;html=1;" vertex="1" parent="1">
          <mxGeometry x="370" y="440" width="120" height="60" as="geometry" />
        </mxCell>
        <mxCell id="o6QJblB1Smc_fNj8Gcau-13" style="edgeStyle=orthogonalEdgeStyle;rounded=0;orthogonalLoop=1;jettySize=auto;html=1;entryX=0.5;entryY=0;entryDx=0;entryDy=0;" edge="1" parent="1" source="o6QJblB1Smc_fNj8Gcau-2" target="o6QJblB1Smc_fNj8Gcau-3">
          <mxGeometry relative="1" as="geometry" />
        </mxCell>
        <mxCell id="o6QJblB1Smc_fNj8Gcau-2" value="Удаление задачи" style="rounded=1;whiteSpace=wrap;html=1;" vertex="1" parent="1">
          <mxGeometry x="500" y="440" width="120" height="60" as="geometry" />
        </mxCell>
        <mxCell id="o6QJblB1Smc_fNj8Gcau-15" style="edgeStyle=orthogonalEdgeStyle;rounded=0;orthogonalLoop=1;jettySize=auto;html=1;entryX=0.5;entryY=0;entryDx=0;entryDy=0;" edge="1" parent="1" source="o6QJblB1Smc_fNj8Gcau-3" target="o6QJblB1Smc_fNj8Gcau-4">
          <mxGeometry relative="1" as="geometry" />
        </mxCell>
        <mxCell id="o6QJblB1Smc_fNj8Gcau-3" value="Выбирает из списка задачу" style="rounded=1;whiteSpace=wrap;html=1;" vertex="1" parent="1">
          <mxGeometry x="500" y="520" width="120" height="60" as="geometry" />
        </mxCell>
        <mxCell id="o6QJblB1Smc_fNj8Gcau-4" value="Нажимает кнопку &quot;Удалить&quot;" style="rounded=1;whiteSpace=wrap;html=1;" vertex="1" parent="1">
          <mxGeometry x="500" y="600" width="120" height="60" as="geometry" />
        </mxCell>
        <mxCell id="o6QJblB1Smc_fNj8Gcau-10" style="edgeStyle=orthogonalEdgeStyle;rounded=0;orthogonalLoop=1;jettySize=auto;html=1;entryX=0.5;entryY=0;entryDx=0;entryDy=0;" edge="1" parent="1" source="o6QJblB1Smc_fNj8Gcau-5" target="o6QJblB1Smc_fNj8Gcau-6">
          <mxGeometry relative="1" as="geometry" />
        </mxCell>
        <mxCell id="o6QJblB1Smc_fNj8Gcau-5" value="Нажимает кнопку &quot;Добавить&quot;" style="rounded=1;whiteSpace=wrap;html=1;" vertex="1" parent="1">
          <mxGeometry x="370" y="520" width="120" height="60" as="geometry" />
        </mxCell>
        <mxCell id="o6QJblB1Smc_fNj8Gcau-11" style="edgeStyle=orthogonalEdgeStyle;rounded=0;orthogonalLoop=1;jettySize=auto;html=1;" edge="1" parent="1" source="o6QJblB1Smc_fNj8Gcau-6">
          <mxGeometry relative="1" as="geometry">
            <mxPoint x="430" y="680" as="targetPoint" />
          </mxGeometry>
        </mxCell>
        <mxCell id="o6QJblB1Smc_fNj8Gcau-6" value="Вводит название, описание, дату" style="rounded=1;whiteSpace=wrap;html=1;" vertex="1" parent="1">
          <mxGeometry x="370" y="600" width="120" height="60" as="geometry" />
        </mxCell>
        <mxCell id="o6QJblB1Smc_fNj8Gcau-7" value="Нажимает кнопку &quot;Сохранить&quot;" style="rounded=1;whiteSpace=wrap;html=1;" vertex="1" parent="1">
          <mxGeometry x="370" y="680" width="120" height="60" as="geometry" />
        </mxCell>
        <mxCell id="o6QJblB1Smc_fNj8Gcau-20" style="edgeStyle=orthogonalEdgeStyle;rounded=0;orthogonalLoop=1;jettySize=auto;html=1;entryX=0.5;entryY=0;entryDx=0;entryDy=0;" edge="1" parent="1" source="o6QJblB1Smc_fNj8Gcau-16" target="o6QJblB1Smc_fNj8Gcau-17">
          <mxGeometry relative="1" as="geometry" />
        </mxCell>
        <mxCell id="o6QJblB1Smc_fNj8Gcau-16" value="Резервное копирование" style="rounded=1;whiteSpace=wrap;html=1;" vertex="1" parent="1">
          <mxGeometry x="630" y="440" width="120" height="60" as="geometry" />
        </mxCell>
        <mxCell id="o6QJblB1Smc_fNj8Gcau-21" style="edgeStyle=orthogonalEdgeStyle;rounded=0;orthogonalLoop=1;jettySize=auto;html=1;entryX=0.5;entryY=0;entryDx=0;entryDy=0;" edge="1" parent="1" source="o6QJblB1Smc_fNj8Gcau-17" target="o6QJblB1Smc_fNj8Gcau-18">
          <mxGeometry relative="1" as="geometry" />
        </mxCell>
        <mxCell id="o6QJblB1Smc_fNj8Gcau-17" value="Нажимает кнопку &quot;Бэкап&quot;" style="rounded=1;whiteSpace=wrap;html=1;" vertex="1" parent="1">
          <mxGeometry x="630" y="520" width="120" height="60" as="geometry" />
        </mxCell>
        <mxCell id="o6QJblB1Smc_fNj8Gcau-18" value="Выбирает папку для сохранения файла" style="rounded=1;whiteSpace=wrap;html=1;" vertex="1" parent="1">
          <mxGeometry x="630" y="600" width="120" height="60" as="geometry" />
        </mxCell>
      </root>
    </mxGraphModel>
  </diagram>
  <diagram name="Страница — 1" id="lD4i7l8Ca72HW-ROGaR9">
    <mxGraphModel dx="1400" dy="839" grid="1" gridSize="10" guides="1" tooltips="1" connect="1" arrows="1" fold="1" page="1" pageScale="1" pageWidth="827" pageHeight="1169" math="0" shadow="0">
      <root>
        <mxCell id="0" />
        <mxCell id="1" parent="0" />
        <mxCell id="Oc5Kqi6DhIM6thQefh6N-5" style="edgeStyle=orthogonalEdgeStyle;rounded=0;orthogonalLoop=1;jettySize=auto;html=1;" parent="1" source="Oc5Kqi6DhIM6thQefh6N-1" target="Oc5Kqi6DhIM6thQefh6N-2" edge="1">
          <mxGeometry relative="1" as="geometry" />
        </mxCell>
        <mxCell id="Oc5Kqi6DhIM6thQefh6N-1" value="Начало" style="ellipse;whiteSpace=wrap;html=1;" parent="1" vertex="1">
          <mxGeometry x="340" y="150" width="120" height="60" as="geometry" />
        </mxCell>
        <mxCell id="Oc5Kqi6DhIM6thQefh6N-7" style="edgeStyle=orthogonalEdgeStyle;rounded=0;orthogonalLoop=1;jettySize=auto;html=1;entryX=0.5;entryY=0;entryDx=0;entryDy=0;" parent="1" source="Oc5Kqi6DhIM6thQefh6N-2" target="Oc5Kqi6DhIM6thQefh6N-6" edge="1">
          <mxGeometry relative="1" as="geometry" />
        </mxCell>
        <mxCell id="Oc5Kqi6DhIM6thQefh6N-9" style="edgeStyle=orthogonalEdgeStyle;rounded=0;orthogonalLoop=1;jettySize=auto;html=1;entryX=0.5;entryY=0;entryDx=0;entryDy=0;" parent="1" source="Oc5Kqi6DhIM6thQefh6N-2" target="Oc5Kqi6DhIM6thQefh6N-8" edge="1">
          <mxGeometry relative="1" as="geometry" />
        </mxCell>
        <mxCell id="Oc5Kqi6DhIM6thQefh6N-15" style="edgeStyle=orthogonalEdgeStyle;rounded=0;orthogonalLoop=1;jettySize=auto;html=1;entryX=0.5;entryY=0;entryDx=0;entryDy=0;" parent="1" source="Oc5Kqi6DhIM6thQefh6N-2" target="Oc5Kqi6DhIM6thQefh6N-14" edge="1">
          <mxGeometry relative="1" as="geometry" />
        </mxCell>
        <mxCell id="Oc5Kqi6DhIM6thQefh6N-17" style="edgeStyle=orthogonalEdgeStyle;rounded=0;orthogonalLoop=1;jettySize=auto;html=1;entryX=0.5;entryY=0;entryDx=0;entryDy=0;" parent="1" source="Oc5Kqi6DhIM6thQefh6N-2" target="Oc5Kqi6DhIM6thQefh6N-16" edge="1">
          <mxGeometry relative="1" as="geometry" />
        </mxCell>
        <mxCell id="Oc5Kqi6DhIM6thQefh6N-2" value="Основной экран" style="rounded=1;whiteSpace=wrap;html=1;" parent="1" vertex="1">
          <mxGeometry x="340" y="240" width="120" height="60" as="geometry" />
        </mxCell>
        <mxCell id="Oc5Kqi6DhIM6thQefh6N-11" style="edgeStyle=orthogonalEdgeStyle;rounded=0;orthogonalLoop=1;jettySize=auto;html=1;entryX=0.5;entryY=0;entryDx=0;entryDy=0;" parent="1" source="Oc5Kqi6DhIM6thQefh6N-6" target="Oc5Kqi6DhIM6thQefh6N-10" edge="1">
          <mxGeometry relative="1" as="geometry" />
        </mxCell>
        <mxCell id="Oc5Kqi6DhIM6thQefh6N-6" value="Список задач" style="rounded=1;whiteSpace=wrap;html=1;" parent="1" vertex="1">
          <mxGeometry x="220" y="350" width="120" height="60" as="geometry" />
        </mxCell>
        <mxCell id="Oc5Kqi6DhIM6thQefh6N-13" style="edgeStyle=orthogonalEdgeStyle;rounded=0;orthogonalLoop=1;jettySize=auto;html=1;entryX=0.5;entryY=0;entryDx=0;entryDy=0;" parent="1" source="Oc5Kqi6DhIM6thQefh6N-8" target="Oc5Kqi6DhIM6thQefh6N-12" edge="1">
          <mxGeometry relative="1" as="geometry" />
        </mxCell>
        <mxCell id="Oc5Kqi6DhIM6thQefh6N-8" value="Кнопки для управления задачами" style="rounded=1;whiteSpace=wrap;html=1;" parent="1" vertex="1">
          <mxGeometry x="450" y="350" width="120" height="60" as="geometry" />
        </mxCell>
        <mxCell id="Oc5Kqi6DhIM6thQefh6N-10" value="- Название&lt;div&gt;- Статус&lt;/div&gt;&lt;div&gt;- Отметка выполнения&lt;/div&gt;&lt;div&gt;- Категория&lt;/div&gt;&lt;div&gt;- Дата и время&lt;/div&gt;" style="rounded=1;whiteSpace=wrap;html=1;" parent="1" vertex="1">
          <mxGeometry x="205" y="440" width="150" height="100" as="geometry" />
        </mxCell>
        <mxCell id="Oc5Kqi6DhIM6thQefh6N-12" value="- Добавить&lt;div&gt;- Удалить&lt;/div&gt;&lt;div&gt;- Изменить статус&lt;/div&gt;&lt;div&gt;- Выполнена&lt;/div&gt;" style="rounded=1;whiteSpace=wrap;html=1;" parent="1" vertex="1">
          <mxGeometry x="435" y="440" width="150" height="100" as="geometry" />
        </mxCell>
        <mxCell id="Oc5Kqi6DhIM6thQefh6N-14" value="Хранение данных:&lt;div&gt;json&lt;/div&gt;&lt;div&gt;Авто-сохранение&lt;/div&gt;" style="rounded=1;whiteSpace=wrap;html=1;" parent="1" vertex="1">
          <mxGeometry x="340" y="585" width="120" height="60" as="geometry" />
        </mxCell>
        <mxCell id="Oc5Kqi6DhIM6thQefh6N-16" value="Экспорт задач в txt" style="rounded=1;whiteSpace=wrap;html=1;" parent="1" vertex="1">
          <mxGeometry x="610" y="350" width="120" height="60" as="geometry" />
        </mxCell>
      </root>
    </mxGraphModel>
  </diagram>
  <diagram name="Страница — 2" id="-IzDnpQQLNR9_dT-kmqL">
    <mxGraphModel dx="420" dy="252" grid="1" gridSize="10" guides="1" tooltips="1" connect="1" arrows="1" fold="1" page="1" pageScale="1" pageWidth="827" pageHeight="1169" math="0" shadow="0">
      <root>
        <mxCell id="0" />
        <mxCell id="1" parent="0" />
        <mxCell id="oMK6G9Mbc1Q8MmzZmvGb-1" style="edgeStyle=orthogonalEdgeStyle;rounded=0;orthogonalLoop=1;jettySize=auto;html=1;entryX=0.5;entryY=0;entryDx=0;entryDy=0;" parent="1" source="oMK6G9Mbc1Q8MmzZmvGb-2" target="oMK6G9Mbc1Q8MmzZmvGb-5" edge="1">
          <mxGeometry relative="1" as="geometry" />
        </mxCell>
        <mxCell id="oMK6G9Mbc1Q8MmzZmvGb-2" value="Начало" style="ellipse;whiteSpace=wrap;html=1;" parent="1" vertex="1">
          <mxGeometry x="390" y="40" width="120" height="60" as="geometry" />
        </mxCell>
        <mxCell id="oMK6G9Mbc1Q8MmzZmvGb-3" style="edgeStyle=orthogonalEdgeStyle;rounded=0;orthogonalLoop=1;jettySize=auto;html=1;entryX=0.5;entryY=0;entryDx=0;entryDy=0;" parent="1" source="oMK6G9Mbc1Q8MmzZmvGb-5" target="oMK6G9Mbc1Q8MmzZmvGb-7" edge="1">
          <mxGeometry relative="1" as="geometry" />
        </mxCell>
        <mxCell id="oMK6G9Mbc1Q8MmzZmvGb-5" value="Видит список задач" style="rounded=1;whiteSpace=wrap;html=1;" parent="1" vertex="1">
          <mxGeometry x="390" y="130" width="120" height="50" as="geometry" />
        </mxCell>
        <mxCell id="oMK6G9Mbc1Q8MmzZmvGb-6" style="edgeStyle=orthogonalEdgeStyle;rounded=0;orthogonalLoop=1;jettySize=auto;html=1;entryX=0.5;entryY=0;entryDx=0;entryDy=0;" parent="1" source="oMK6G9Mbc1Q8MmzZmvGb-7" target="oMK6G9Mbc1Q8MmzZmvGb-10" edge="1">
          <mxGeometry relative="1" as="geometry" />
        </mxCell>
        <mxCell id="oMK6G9Mbc1Q8MmzZmvGb-7" value="Создаёт новую задачу на завтра" style="rounded=1;whiteSpace=wrap;html=1;" parent="1" vertex="1">
          <mxGeometry x="390" y="200" width="120" height="50" as="geometry" />
        </mxCell>
        <mxCell id="fgWuNDosKUy4yKBVwMvG-3" style="edgeStyle=orthogonalEdgeStyle;rounded=0;orthogonalLoop=1;jettySize=auto;html=1;entryX=0.5;entryY=0;entryDx=0;entryDy=0;" edge="1" parent="1" source="oMK6G9Mbc1Q8MmzZmvGb-10" target="oMK6G9Mbc1Q8MmzZmvGb-15">
          <mxGeometry relative="1" as="geometry" />
        </mxCell>
        <mxCell id="oMK6G9Mbc1Q8MmzZmvGb-10" value="Отмечает предыдущий день выполненным" style="rounded=1;whiteSpace=wrap;html=1;" parent="1" vertex="1">
          <mxGeometry x="390" y="270" width="120" height="50" as="geometry" />
        </mxCell>
        <mxCell id="oMK6G9Mbc1Q8MmzZmvGb-13" style="edgeStyle=orthogonalEdgeStyle;rounded=0;orthogonalLoop=1;jettySize=auto;html=1;entryX=0.5;entryY=0;entryDx=0;entryDy=0;" parent="1" source="oMK6G9Mbc1Q8MmzZmvGb-15" target="oMK6G9Mbc1Q8MmzZmvGb-17" edge="1">
          <mxGeometry relative="1" as="geometry" />
        </mxCell>
        <mxCell id="oMK6G9Mbc1Q8MmzZmvGb-15" value="Сохраняет резервную копию в файл" style="rounded=1;whiteSpace=wrap;html=1;" parent="1" vertex="1">
          <mxGeometry x="390" y="335" width="120" height="50" as="geometry" />
        </mxCell>
        <mxCell id="oMK6G9Mbc1Q8MmzZmvGb-16" style="edgeStyle=orthogonalEdgeStyle;rounded=0;orthogonalLoop=1;jettySize=auto;html=1;entryX=0.5;entryY=0;entryDx=0;entryDy=0;" parent="1" source="oMK6G9Mbc1Q8MmzZmvGb-17" target="oMK6G9Mbc1Q8MmzZmvGb-18" edge="1">
          <mxGeometry relative="1" as="geometry" />
        </mxCell>
        <mxCell id="oMK6G9Mbc1Q8MmzZmvGb-17" value="Закрывает программу" style="rounded=1;whiteSpace=wrap;html=1;" parent="1" vertex="1">
          <mxGeometry x="390" y="405" width="120" height="50" as="geometry" />
        </mxCell>
        <mxCell id="oMK6G9Mbc1Q8MmzZmvGb-18" value="Конец" style="ellipse;whiteSpace=wrap;html=1;" parent="1" vertex="1">
          <mxGeometry x="390" y="475" width="120" height="60" as="geometry" />
        </mxCell>
        <mxCell id="TaGGcqDywdi5O218atkt-1" value="" style="strokeWidth=2;html=1;shape=mxgraph.flowchart.annotation_2;align=left;labelPosition=right;pointerEvents=1;" parent="1" vertex="1">
          <mxGeometry x="510" y="105" width="50" height="100" as="geometry" />
        </mxCell>
        <mxCell id="TaGGcqDywdi5O218atkt-4" value="- Название&lt;div&gt;- Статус&lt;/div&gt;&lt;div&gt;- Отметка выполнения&lt;/div&gt;&lt;div&gt;- Категория&lt;/div&gt;&lt;div&gt;- Дата и время&lt;/div&gt;" style="text;html=1;align=center;verticalAlign=middle;whiteSpace=wrap;rounded=0;" parent="1" vertex="1">
          <mxGeometry x="560" y="140" width="60" height="30" as="geometry" />
        </mxCell>
        <mxCell id="TaGGcqDywdi5O218atkt-5" value="" style="strokeWidth=2;html=1;shape=mxgraph.flowchart.annotation_2;align=left;labelPosition=right;pointerEvents=1;" parent="1" vertex="1">
          <mxGeometry x="510" y="310" width="50" height="100" as="geometry" />
        </mxCell>
        <mxCell id="TaGGcqDywdi5O218atkt-6" value="Хранение данных:&lt;div&gt;json&lt;/div&gt;&lt;div&gt;Авто-сохранение&lt;/div&gt;" style="text;html=1;align=center;verticalAlign=middle;whiteSpace=wrap;rounded=0;" parent="1" vertex="1">
          <mxGeometry x="560" y="345" width="60" height="30" as="geometry" />
        </mxCell>
        <mxCell id="TaGGcqDywdi5O218atkt-7" value="" style="strokeWidth=2;html=1;shape=mxgraph.flowchart.annotation_2;align=left;labelPosition=right;pointerEvents=1;direction=west;" parent="1" vertex="1">
          <mxGeometry x="340" y="180" width="50" height="90" as="geometry" />
        </mxCell>
        <mxCell id="TaGGcqDywdi5O218atkt-8" value="&#xa;&lt;span style=&quot;color: rgb(240, 240, 240); font-family: Helvetica; font-size: 12px; font-style: normal; font-variant-ligatures: normal; font-variant-caps: normal; font-weight: 400; letter-spacing: normal; orphans: 2; text-align: center; text-indent: 0px; text-transform: none; widows: 2; word-spacing: 0px; -webkit-text-stroke-width: 0px; white-space: normal; background-color: rgb(27, 29, 30); text-decoration-thickness: initial; text-decoration-style: initial; text-decoration-color: initial; display: inline !important; float: none;&quot;&gt;- Добавить&lt;/span&gt;&lt;div style=&quot;forced-color-adjust: none; border-color: rgb(0, 0, 0); color: rgb(240, 240, 240); font-family: Helvetica; font-size: 12px; font-style: normal; font-variant-ligatures: normal; font-variant-caps: normal; font-weight: 400; letter-spacing: normal; orphans: 2; text-align: center; text-indent: 0px; text-transform: none; widows: 2; word-spacing: 0px; -webkit-text-stroke-width: 0px; white-space: normal; background-color: rgb(27, 29, 30); text-decoration-thickness: initial; text-decoration-style: initial; text-decoration-color: initial;&quot;&gt;- Удалить&lt;/div&gt;&lt;div style=&quot;forced-color-adjust: none; border-color: rgb(0, 0, 0); color: rgb(240, 240, 240); font-family: Helvetica; font-size: 12px; font-style: normal; font-variant-ligatures: normal; font-variant-caps: normal; font-weight: 400; letter-spacing: normal; orphans: 2; text-align: center; text-indent: 0px; text-transform: none; widows: 2; word-spacing: 0px; -webkit-text-stroke-width: 0px; white-space: normal; background-color: rgb(27, 29, 30); text-decoration-thickness: initial; text-decoration-style: initial; text-decoration-color: initial;&quot;&gt;- Изменить статус&lt;/div&gt;&lt;div style=&quot;forced-color-adjust: none; border-color: rgb(0, 0, 0); color: rgb(240, 240, 240); font-family: Helvetica; font-size: 12px; font-style: normal; font-variant-ligatures: normal; font-variant-caps: normal; font-weight: 400; letter-spacing: normal; orphans: 2; text-align: center; text-indent: 0px; text-transform: none; widows: 2; word-spacing: 0px; -webkit-text-stroke-width: 0px; white-space: normal; background-color: rgb(27, 29, 30); text-decoration-thickness: initial; text-decoration-style: initial; text-decoration-color: initial;&quot;&gt;- Выполнена&lt;/div&gt;&#xa;&#xa;" style="text;html=1;align=center;verticalAlign=middle;whiteSpace=wrap;rounded=0;" parent="1" vertex="1">
          <mxGeometry x="270" y="185" width="90" height="90" as="geometry" />
        </mxCell>
      </root>
    </mxGraphModel>
  </diagram>
</mxfile>
